<svg width="120" height="120" viewBox="0 0 168 168" fill="none" xmlns="http://www.w3.org/2000/svg">
<g clip-path="url(#clip0_327_1825)">
<g filter="url(#filter0_d_327_1825)">
<path d="M73.5 147C73.5 147 63 147 63 136.5C63 126 73.5 94.5 115.5 94.5C157.5 94.5 168 126 168 136.5C168 147 157.5 147 157.5 147H73.5ZM115.5 84C123.854 84 131.866 80.6813 137.774 74.7739C143.681 68.8665 147 60.8543 147 52.5C147 44.1457 143.681 36.1335 137.774 30.2261C131.866 24.3187 123.854 21 115.5 21C107.146 21 99.1335 24.3187 93.2261 30.2261C87.3187 36.1335 84 44.1457 84 52.5C84 60.8543 87.3187 68.8665 93.2261 74.7739C99.1335 80.6813 107.146 84 115.5 84V84Z" fill="#D3FFFD"/>
<path fill-rule="evenodd" clip-rule="evenodd" d="M54.768 147C53.2114 143.722 52.4351 140.128 52.5 136.5C52.5 122.273 59.64 107.625 72.828 97.4401C66.2455 95.4119 59.3875 94.42 52.5 94.5001C10.5 94.5001 0 126 0 136.5C0 147 10.5 147 10.5 147H54.768Z" fill="#D3FFFD"/>
<path d="M47.25 84C54.2119 84 60.8887 81.2344 65.8116 76.3116C70.7344 71.3887 73.5 64.7119 73.5 57.75C73.5 50.7881 70.7344 44.1113 65.8116 39.1884C60.8887 34.2656 54.2119 31.5 47.25 31.5C40.2881 31.5 33.6113 34.2656 28.6884 39.1884C23.7656 44.1113 21 50.7881 21 57.75C21 64.7119 23.7656 71.3887 28.6884 76.3116C33.6113 81.2344 40.2881 84 47.25 84V84Z" fill="#D3FFFD"/>
</g>
</g>
<defs>
<filter id="filter0_d_327_1825" x="-10" y="11" width="188" height="146" filterUnits="userSpaceOnUse" color-interpolation-filters="sRGB">
<feFlood flood-opacity="0" result="BackgroundImageFix"/>
<feColorMatrix in="SourceAlpha" type="matrix" values="0 0 0 0 0 0 0 0 0 0 0 0 0 0 0 0 0 0 127 0" result="hardAlpha"/>
<feOffset/>
<feGaussianBlur stdDeviation="5"/>
<feComposite in2="hardAlpha" operator="out"/>
<feColorMatrix type="matrix" values="0 0 0 0 1 0 0 0 0 1 0 0 0 0 1 0 0 0 1 0"/>
<feBlend mode="normal" in2="BackgroundImageFix" result="effect1_dropShadow_327_1825"/>
<feBlend mode="normal" in="SourceGraphic" in2="effect1_dropShadow_327_1825" result="shape"/>
</filter>
<clipPath id="clip0_327_1825">
<rect width="168" height="168" fill="white"/>
</clipPath>
</defs>
</svg>
