<svg width="120" height="120" viewBox="0 0 173 164" fill="none" xmlns="http://www.w3.org/2000/svg">
<g filter="url(#filter0_d_327_1838)">
<path d="M67.375 129.531C67.375 128.263 67.8787 127.047 68.7754 126.15C69.672 125.254 70.8882 124.75 72.1562 124.75H100.844C102.112 124.75 103.328 125.254 104.225 126.15C105.121 127.047 105.625 128.263 105.625 129.531C105.625 130.799 105.121 132.015 104.225 132.912C103.328 133.809 102.112 134.312 100.844 134.312H72.1562C70.8882 134.312 69.672 133.809 68.7754 132.912C67.8787 132.015 67.375 130.799 67.375 129.531ZM38.6875 87.0928C38.6875 74.6424 50.4972 65.1277 62.8806 66.2848C78.5927 67.7512 94.4073 67.7512 110.119 66.2848C122.503 65.1277 134.312 74.6424 134.312 87.0928V98.1566C134.352 100.272 133.637 102.333 132.297 103.971C130.957 105.609 129.079 106.717 126.997 107.098C118.917 108.503 104.621 110.406 86.5 110.406C68.3791 110.406 54.0831 108.494 46.0028 107.098C43.9212 106.717 42.0427 105.609 40.7027 103.971C39.3627 102.333 38.6484 100.272 38.6875 98.1566V87.0928ZM82.1204 79.1846C81.7477 79.1212 81.3653 79.1471 81.0046 79.2602C80.6439 79.3732 80.3151 79.5702 80.0453 79.8349L71.2478 88.4411C65.264 88.0844 59.2959 87.5007 53.3564 86.6912C52.7409 86.63 52.1256 86.8098 51.6399 87.1927C51.1542 87.5757 50.8358 88.132 50.7516 88.7447C50.6674 89.3575 50.824 89.9791 51.1885 90.4788C51.553 90.9785 52.0969 91.3176 52.7061 91.4246C57.9655 92.1514 64.4871 92.8494 72.0224 93.2702C72.3543 93.2889 72.6864 93.2382 72.9976 93.1213C73.3088 93.0044 73.5922 92.8239 73.8297 92.5913L81.0398 85.5533L89.1392 101.905C89.3099 102.248 89.5604 102.545 89.8698 102.771C90.1792 102.997 90.5384 103.145 90.9171 103.203C91.2958 103.262 91.6829 103.228 92.0458 103.105C92.4088 102.982 92.7369 102.774 93.0025 102.498L101.915 93.2224C108.062 92.8574 114.193 92.2577 120.294 91.4246C120.903 91.3176 121.447 90.9785 121.811 90.4788C122.176 89.9791 122.333 89.3575 122.248 88.7447C122.164 88.132 121.846 87.5757 121.36 87.1927C120.874 86.8098 120.259 86.63 119.644 86.6912C114.499 87.3988 108.102 88.0777 100.71 88.4985C100.108 88.532 99.5411 88.7915 99.1225 89.2253L91.9124 96.7318L83.8607 80.4756C83.6928 80.1385 83.4477 79.8459 83.1452 79.6216C82.8428 79.3972 82.4916 79.2475 82.1204 79.1846V79.1846Z" fill="#D3FFFD"/>
<path d="M91.2812 27.8439C93.1043 26.7914 94.529 25.1667 95.3346 23.2219C96.1402 21.2771 96.2815 19.1208 95.7367 17.0875C95.1918 15.0542 93.9913 13.2575 92.3213 11.9761C90.6512 10.6946 88.605 10 86.5 10C84.395 10 82.3488 10.6946 80.6787 11.9761C79.0087 13.2575 77.8082 15.0542 77.2633 17.0875C76.7185 19.1208 76.8598 21.2771 77.6654 23.2219C78.471 25.1667 79.8957 26.7914 81.7188 27.8439V38.6877H62.5938C51.1812 38.6877 40.236 43.2214 32.1661 51.2913C24.0961 59.3612 19.5625 70.3064 19.5625 81.719V86.5003C17.0264 86.5003 14.5941 87.5077 12.8008 89.301C11.0075 91.0944 10 93.5266 10 96.0628L10 115.188C10 117.724 11.0075 120.156 12.8008 121.949C14.5941 123.743 17.0264 124.75 19.5625 124.75V134.313C19.5625 139.385 21.5774 144.25 25.1641 147.836C28.7507 151.423 33.6152 153.438 38.6875 153.438H134.312C139.385 153.438 144.249 151.423 147.836 147.836C151.423 144.25 153.438 139.385 153.438 134.313V124.75C155.974 124.75 158.406 123.743 160.199 121.949C161.993 120.156 163 117.724 163 115.188V96.0628C163 93.5266 161.993 91.0944 160.199 89.301C158.406 87.5077 155.974 86.5003 153.438 86.5003V81.719C153.437 70.3064 148.904 59.3612 140.834 51.2913C132.764 43.2214 121.819 38.6877 110.406 38.6877H91.2812V27.8439ZM143.875 81.719V134.313C143.875 136.849 142.868 139.281 141.074 141.074C139.281 142.868 136.849 143.875 134.312 143.875H38.6875C36.1514 143.875 33.7191 142.868 31.9258 141.074C30.1325 139.281 29.125 136.849 29.125 134.313V81.719C29.125 72.8425 32.6512 64.3296 38.9278 58.053C45.2044 51.7764 53.7173 48.2502 62.5938 48.2502H110.406C119.283 48.2502 127.796 51.7764 134.072 58.053C140.349 64.3296 143.875 72.8425 143.875 81.719V81.719Z" fill="#D3FFFD"/>
</g>
<defs>
<filter id="filter0_d_327_1838" x="0" y="0" width="173" height="173" filterUnits="userSpaceOnUse" color-interpolation-filters="sRGB">
<feFlood flood-opacity="0" result="BackgroundImageFix"/>
<feColorMatrix in="SourceAlpha" type="matrix" values="0 0 0 0 0 0 0 0 0 0 0 0 0 0 0 0 0 0 127 0" result="hardAlpha"/>
<feOffset/>
<feGaussianBlur stdDeviation="5"/>
<feComposite in2="hardAlpha" operator="out"/>
<feColorMatrix type="matrix" values="0 0 0 0 1 0 0 0 0 1 0 0 0 0 1 0 0 0 1 0"/>
<feBlend mode="normal" in2="BackgroundImageFix" result="effect1_dropShadow_327_1838"/>
<feBlend mode="normal" in="SourceGraphic" in2="effect1_dropShadow_327_1838" result="shape"/>
</filter>
</defs>
</svg>
