<svg width="120" height="120" viewBox="0 0 120 120" fill="none" xmlns="http://www.w3.org/2000/svg">
<g clip-path="url(#clip0_436_3366)">
<g filter="url(#filter0_d_436_3366)">
<path d="M10 95H29.54C31.2144 94.9994 32.8619 94.5784 34.3313 93.7756C35.8007 92.9727 37.045 91.8138 37.95 90.405L57.5 60L77.05 29.59C77.9552 28.1829 79.1989 27.0253 80.6673 26.2234C82.1357 25.4215 83.7819 25.0009 85.455 25H110M110 95H85.46C83.7856 94.9994 82.1381 94.5784 80.6687 93.7756C79.1993 92.9727 77.955 91.8138 77.05 90.405L67.14 75M10 25H29.54C31.214 25 32.8611 25.4203 34.3305 26.2222C35.7999 27.0242 37.0444 28.1822 37.95 29.59L47.855 45" stroke="#D3FFFD" stroke-width="10" stroke-linecap="round" stroke-linejoin="round" shape-rendering="crispEdges"/>
</g>
<g filter="url(#filter1_d_436_3366)">
<path d="M95 10L110 25L95 40M95 80L110 95L95 110" stroke="#D3FFFD" stroke-width="10" stroke-linecap="round" stroke-linejoin="round" shape-rendering="crispEdges"/>
</g>
</g>
<defs>
<filter id="filter0_d_436_3366" x="-5" y="10" width="130" height="100" filterUnits="userSpaceOnUse" color-interpolation-filters="sRGB">
<feFlood flood-opacity="0" result="BackgroundImageFix"/>
<feColorMatrix in="SourceAlpha" type="matrix" values="0 0 0 0 0 0 0 0 0 0 0 0 0 0 0 0 0 0 127 0" result="hardAlpha"/>
<feOffset/>
<feGaussianBlur stdDeviation="5"/>
<feComposite in2="hardAlpha" operator="out"/>
<feColorMatrix type="matrix" values="0 0 0 0 1 0 0 0 0 1 0 0 0 0 1 0 0 0 1 0"/>
<feBlend mode="normal" in2="BackgroundImageFix" result="effect1_dropShadow_436_3366"/>
<feBlend mode="normal" in="SourceGraphic" in2="effect1_dropShadow_436_3366" result="shape"/>
</filter>
<filter id="filter1_d_436_3366" x="80" y="-5" width="45" height="130" filterUnits="userSpaceOnUse" color-interpolation-filters="sRGB">
<feFlood flood-opacity="0" result="BackgroundImageFix"/>
<feColorMatrix in="SourceAlpha" type="matrix" values="0 0 0 0 0 0 0 0 0 0 0 0 0 0 0 0 0 0 127 0" result="hardAlpha"/>
<feOffset/>
<feGaussianBlur stdDeviation="5"/>
<feComposite in2="hardAlpha" operator="out"/>
<feColorMatrix type="matrix" values="0 0 0 0 1 0 0 0 0 1 0 0 0 0 1 0 0 0 1 0"/>
<feBlend mode="normal" in2="BackgroundImageFix" result="effect1_dropShadow_436_3366"/>
<feBlend mode="normal" in="SourceGraphic" in2="effect1_dropShadow_436_3366" result="shape"/>
</filter>
<clipPath id="clip0_436_3366">
<rect width="120" height="120" fill="white"/>
</clipPath>
</defs>
</svg>
